<svg xmlns="http://www.w3.org/2000/svg" xmlns:xlink="http://www.w3.org/1999/xlink" width="500" zoomAndPan="magnify" viewBox="0 0 375 374.999991" height="500" preserveAspectRatio="xMidYMid meet" version="1.0"><defs><g/><clipPath id="44f05dee5f"><path d="M 308.824219 142.183594 L 323.597656 142.183594 L 323.597656 156.957031 L 308.824219 156.957031 Z M 308.824219 142.183594 " clip-rule="nonzero"/></clipPath><clipPath id="fefc36d361"><path d="M 316.210938 142.183594 C 312.132812 142.183594 308.824219 145.488281 308.824219 149.570312 C 308.824219 153.648438 312.132812 156.957031 316.210938 156.957031 C 320.292969 156.957031 323.597656 153.648438 323.597656 149.570312 C 323.597656 145.488281 320.292969 142.183594 316.210938 142.183594 Z M 316.210938 142.183594 " clip-rule="nonzero"/></clipPath></defs><rect x="-37.5" width="450" fill="#ffffff" y="-37.499999" height="449.999989" fill-opacity="1"/><rect x="-37.5" width="450" fill="#000000" y="-37.499999" height="449.999989" fill-opacity="1"/><g clip-path="url(#44f05dee5f)"><g clip-path="url(#fefc36d361)"><path fill="#ffffff" d="M 308.824219 142.183594 L 323.597656 142.183594 L 323.597656 156.957031 L 308.824219 156.957031 Z M 308.824219 142.183594 " fill-opacity="1" fill-rule="nonzero"/></g></g><g fill="#ffffff" fill-opacity="1"><g transform="translate(76.771559, 203.624987)"><g><path d="M 2.84375 -2.21875 C 1.9375 -3.082031 1.367188 -4.113281 1.140625 -5.3125 C 0.910156 -6.507812 0.847656 -7.742188 0.953125 -9.015625 C 1.054688 -10.296875 1.128906 -11.492188 1.171875 -12.609375 L 1.546875 -25.84375 C 1.585938 -27.28125 1.609375 -28.738281 1.609375 -30.21875 C 1.609375 -31.707031 1.691406 -33.140625 1.859375 -34.515625 C 2.023438 -35.898438 2.375 -37.128906 2.90625 -38.203125 C 3.4375 -39.273438 4.257812 -40.097656 5.375 -40.671875 C 6.488281 -41.242188 7.992188 -41.492188 9.890625 -41.421875 C 10.878906 -41.378906 12.082031 -41.347656 13.5 -41.328125 C 14.925781 -41.304688 16.410156 -41.242188 17.953125 -41.140625 C 19.503906 -41.035156 21 -40.816406 22.4375 -40.484375 C 23.875 -40.160156 25.128906 -39.632812 26.203125 -38.90625 C 27.273438 -38.1875 28.019531 -37.207031 28.4375 -35.96875 C 29.007812 -34.320312 28.976562 -33.035156 28.34375 -32.109375 C 27.707031 -31.179688 26.769531 -30.519531 25.53125 -30.125 C 24.289062 -29.738281 22.976562 -29.515625 21.59375 -29.453125 C 20.21875 -29.390625 19.035156 -29.398438 18.046875 -29.484375 C 17.390625 -29.523438 16.628906 -29.585938 15.765625 -29.671875 C 14.898438 -29.753906 14.09375 -29.734375 13.34375 -29.609375 C 12.601562 -29.484375 12.050781 -29.15625 11.6875 -28.625 C 11.101562 -27.800781 10.894531 -27.117188 11.0625 -26.578125 C 11.226562 -26.046875 11.617188 -25.632812 12.234375 -25.34375 C 12.859375 -25.050781 13.519531 -24.882812 14.21875 -24.84375 C 15.695312 -24.71875 17.015625 -24.5 18.171875 -24.1875 C 19.328125 -23.882812 20.179688 -23.300781 20.734375 -22.4375 C 21.296875 -21.570312 21.429688 -20.253906 21.140625 -18.484375 C 20.722656 -15.972656 19.722656 -14.203125 18.140625 -13.171875 C 16.554688 -12.140625 14.523438 -12.015625 12.046875 -12.796875 C 12.046875 -11.890625 11.984375 -10.710938 11.859375 -9.265625 C 11.742188 -7.828125 11.5 -6.382812 11.125 -4.9375 C 10.75 -3.5 10.210938 -2.304688 9.515625 -1.359375 C 8.816406 -0.410156 7.921875 0.0507812 6.828125 0.03125 C 5.734375 0.0078125 4.40625 -0.738281 2.84375 -2.21875 Z M 2.84375 -2.21875 "/></g></g></g><g fill="#ffffff" fill-opacity="1"><g transform="translate(111.073694, 203.624987)"><g><path d="M 23.921875 -0.984375 C 22.765625 -0.367188 21.40625 -0.0390625 19.84375 0 C 18.28125 0.0390625 16.691406 -0.0664062 15.078125 -0.328125 C 13.472656 -0.597656 12.050781 -0.835938 10.8125 -1.046875 C 8.132812 -1.503906 5.941406 -2.390625 4.234375 -3.703125 C 2.523438 -5.023438 1.523438 -7.109375 1.234375 -9.953125 C 0.984375 -12.503906 0.878906 -15.140625 0.921875 -17.859375 C 0.960938 -20.578125 1.003906 -23.21875 1.046875 -25.78125 C 1.046875 -27.21875 1.066406 -28.8125 1.109375 -30.5625 C 1.148438 -32.3125 1.363281 -34.007812 1.75 -35.65625 C 2.144531 -37.3125 2.835938 -38.738281 3.828125 -39.9375 C 4.898438 -41.207031 6.0625 -41.90625 7.3125 -42.03125 C 8.570312 -42.15625 9.726562 -41.835938 10.78125 -41.078125 C 11.832031 -40.316406 12.585938 -39.191406 13.046875 -37.703125 C 13.660156 -35.929688 14.007812 -34.023438 14.09375 -31.984375 C 14.175781 -29.941406 14.15625 -27.898438 14.03125 -25.859375 C 13.90625 -23.828125 13.800781 -21.882812 13.71875 -20.03125 C 13.675781 -19.363281 13.601562 -18.648438 13.5 -17.890625 C 13.394531 -17.128906 13.382812 -16.398438 13.46875 -15.703125 C 13.59375 -14.835938 13.675781 -14.300781 13.71875 -14.09375 C 13.757812 -13.882812 13.914062 -13.8125 14.1875 -13.875 C 14.457031 -13.9375 14.960938 -13.882812 15.703125 -13.71875 C 16.734375 -13.550781 17.734375 -13.445312 18.703125 -13.40625 C 19.671875 -13.363281 20.617188 -13.269531 21.546875 -13.125 C 22.472656 -12.988281 23.390625 -12.609375 24.296875 -11.984375 C 25.566406 -11.160156 26.398438 -10.015625 26.796875 -8.546875 C 27.191406 -7.085938 27.148438 -5.648438 26.671875 -4.234375 C 26.203125 -2.816406 25.285156 -1.734375 23.921875 -0.984375 Z M 23.921875 -0.984375 "/></g></g></g><g fill="#ffffff" fill-opacity="1"><g transform="translate(144.510564, 203.624987)"><g><path d="M 8.78125 -1.296875 C 7.09375 -2.160156 5.789062 -3.332031 4.875 -4.8125 C 3.96875 -6.300781 3.304688 -7.941406 2.890625 -9.734375 C 2.484375 -11.523438 2.195312 -13.359375 2.03125 -15.234375 C 1.875 -17.109375 1.691406 -18.847656 1.484375 -20.453125 C 1.359375 -21.523438 1.234375 -22.832031 1.109375 -24.375 C 0.984375 -25.925781 0.953125 -27.535156 1.015625 -29.203125 C 1.078125 -30.867188 1.320312 -32.429688 1.75 -33.890625 C 2.1875 -35.359375 2.898438 -36.546875 3.890625 -37.453125 C 4.878906 -38.359375 6.238281 -38.8125 7.96875 -38.8125 C 9.332031 -38.8125 10.414062 -38.453125 11.21875 -37.734375 C 12.019531 -37.015625 12.601562 -36.085938 12.96875 -34.953125 C 13.34375 -33.816406 13.582031 -32.597656 13.6875 -31.296875 C 13.789062 -30.003906 13.820312 -28.738281 13.78125 -27.5 C 13.738281 -26.269531 13.695312 -25.203125 13.65625 -24.296875 C 13.613281 -22.398438 13.5625 -20.359375 13.5 -18.171875 C 13.4375 -15.984375 13.757812 -13.984375 14.46875 -12.171875 C 14.914062 -11.066406 15.507812 -10.242188 16.25 -9.703125 C 17 -9.171875 17.765625 -9.015625 18.546875 -9.234375 C 19.328125 -9.460938 20.003906 -10.15625 20.578125 -11.3125 C 21.367188 -12.875 21.8125 -14.570312 21.90625 -16.40625 C 22.007812 -18.238281 22.0625 -20.003906 22.0625 -21.703125 C 22.0625 -22.847656 21.96875 -24.082031 21.78125 -25.40625 C 21.601562 -26.726562 21.472656 -28.046875 21.390625 -29.359375 C 21.304688 -30.679688 21.429688 -31.878906 21.765625 -32.953125 C 22.085938 -33.929688 22.597656 -34.757812 23.296875 -35.4375 C 24.003906 -36.125 24.8125 -36.519531 25.71875 -36.625 C 26.625 -36.726562 27.53125 -36.390625 28.4375 -35.609375 C 29.175781 -34.984375 29.6875 -34.207031 29.96875 -33.28125 C 30.257812 -32.351562 30.425781 -31.382812 30.46875 -30.375 C 30.507812 -29.363281 30.507812 -28.425781 30.46875 -27.5625 C 30.507812 -25.875 30.53125 -23.988281 30.53125 -21.90625 C 30.53125 -19.832031 30.425781 -17.710938 30.21875 -15.546875 C 30.019531 -13.378906 29.617188 -11.335938 29.015625 -9.421875 C 28.421875 -7.503906 27.546875 -5.867188 26.390625 -4.515625 C 25.484375 -3.441406 24.296875 -2.539062 22.828125 -1.8125 C 21.367188 -1.09375 19.796875 -0.585938 18.109375 -0.296875 C 16.421875 -0.015625 14.75 0.0507812 13.09375 -0.09375 C 11.445312 -0.238281 10.007812 -0.640625 8.78125 -1.296875 Z M 8.78125 -1.296875 "/></g></g></g><g fill="#ffffff" fill-opacity="1"><g transform="translate(181.532119, 203.624987)"><g><path d="M 24.484375 0 C 23.203125 0 22.078125 -0.410156 21.109375 -1.234375 C 20.140625 -2.054688 19.273438 -3.078125 18.515625 -4.296875 C 17.753906 -5.515625 17.070312 -6.75 16.46875 -8 C 15.875 -9.257812 15.289062 -10.34375 14.71875 -11.25 C 14.257812 -10.550781 13.75 -9.6875 13.1875 -8.65625 C 12.632812 -7.625 12.007812 -6.570312 11.3125 -5.5 C 10.613281 -4.425781 9.847656 -3.476562 9.015625 -2.65625 C 8.191406 -1.832031 7.296875 -1.253906 6.328125 -0.921875 C 5.367188 -0.597656 4.332031 -0.679688 3.21875 -1.171875 C 1.976562 -1.710938 1.242188 -2.515625 1.015625 -3.578125 C 0.796875 -4.648438 0.898438 -5.84375 1.328125 -7.15625 C 1.765625 -8.476562 2.363281 -9.820312 3.125 -11.1875 C 3.882812 -12.550781 4.644531 -13.804688 5.40625 -14.953125 C 6.164062 -16.109375 6.734375 -17.015625 7.109375 -17.671875 C 7.441406 -18.253906 7.789062 -18.851562 8.15625 -19.46875 C 8.53125 -20.082031 8.675781 -20.703125 8.59375 -21.328125 C 8.550781 -21.859375 8.3125 -22.460938 7.875 -23.140625 C 7.445312 -23.828125 6.992188 -24.507812 6.515625 -25.1875 C 6.046875 -25.863281 5.664062 -26.453125 5.375 -26.953125 C 4.925781 -27.773438 4.398438 -28.703125 3.796875 -29.734375 C 3.203125 -30.765625 2.726562 -31.832031 2.375 -32.9375 C 2.03125 -34.050781 1.976562 -35.101562 2.21875 -36.09375 C 2.550781 -37.375 3.296875 -38.25 4.453125 -38.71875 C 5.609375 -39.195312 6.757812 -39.207031 7.90625 -38.75 C 9.019531 -38.382812 9.945312 -37.726562 10.6875 -36.78125 C 11.4375 -35.832031 12.085938 -34.789062 12.640625 -33.65625 C 13.191406 -32.519531 13.695312 -31.476562 14.15625 -30.53125 C 14.769531 -31.5625 15.445312 -32.664062 16.1875 -33.84375 C 16.9375 -35.019531 17.816406 -36.0625 18.828125 -36.96875 C 19.835938 -37.875 21 -38.410156 22.3125 -38.578125 C 23.914062 -38.773438 25.253906 -38.429688 26.328125 -37.546875 C 27.398438 -36.660156 27.9375 -35.394531 27.9375 -33.75 C 27.9375 -32.59375 27.625 -31.414062 27 -30.21875 C 26.382812 -29.03125 25.675781 -27.890625 24.875 -26.796875 C 24.070312 -25.703125 23.363281 -24.679688 22.75 -23.734375 C 22.582031 -23.523438 22.425781 -23.296875 22.28125 -23.046875 C 22.132812 -22.804688 21.976562 -22.5625 21.8125 -22.3125 C 20.625 -21.363281 20.644531 -20.394531 21.875 -19.40625 C 22.207031 -18.375 22.742188 -17.3125 23.484375 -16.21875 C 24.222656 -15.132812 24.820312 -14.097656 25.28125 -13.109375 C 25.570312 -12.441406 25.972656 -11.570312 26.484375 -10.5 C 27.003906 -9.4375 27.46875 -8.296875 27.875 -7.078125 C 28.289062 -5.859375 28.519531 -4.703125 28.5625 -3.609375 C 28.601562 -2.523438 28.320312 -1.640625 27.71875 -0.953125 C 27.125 -0.273438 26.046875 0.0390625 24.484375 0 Z M 24.484375 0 "/></g></g></g><g fill="#ffffff" fill-opacity="1"><g transform="translate(216.514119, 203.624987)"><g><path d="M 1.109375 -39 C 0.785156 -40.238281 0.847656 -41.472656 1.296875 -42.703125 C 1.753906 -43.941406 2.46875 -45.046875 3.4375 -46.015625 C 4.40625 -46.984375 5.484375 -47.632812 6.671875 -47.96875 C 7.171875 -48.09375 7.8125 -48.125 8.59375 -48.0625 C 9.375 -48 10.15625 -47.8125 10.9375 -47.5 C 11.71875 -47.195312 12.320312 -46.773438 12.75 -46.234375 C 13.1875 -45.703125 13.285156 -45.039062 13.046875 -44.25 C 13.453125 -43.019531 13.382812 -41.773438 12.84375 -40.515625 C 12.3125 -39.253906 11.507812 -38.160156 10.4375 -37.234375 C 9.375 -36.304688 8.210938 -35.675781 6.953125 -35.34375 C 5.691406 -35.019531 4.523438 -35.125 3.453125 -35.65625 C 2.390625 -36.195312 1.609375 -37.3125 1.109375 -39 Z M 9.203125 -0.859375 C 7.847656 0.0859375 6.53125 0.273438 5.25 -0.296875 C 3.976562 -0.878906 3.007812 -1.851562 2.34375 -3.21875 C 1.726562 -4.53125 1.328125 -6.039062 1.140625 -7.75 C 0.953125 -9.46875 0.890625 -11.253906 0.953125 -13.109375 C 1.015625 -14.960938 1.128906 -16.773438 1.296875 -18.546875 C 1.460938 -20.316406 1.609375 -21.878906 1.734375 -23.234375 C 1.816406 -24.109375 1.898438 -25.109375 1.984375 -26.234375 C 2.066406 -27.367188 2.25 -28.492188 2.53125 -29.609375 C 2.820312 -30.722656 3.273438 -31.609375 3.890625 -32.265625 C 4.796875 -33.210938 5.742188 -33.65625 6.734375 -33.59375 C 7.722656 -33.53125 8.660156 -33.160156 9.546875 -32.484375 C 10.429688 -31.804688 11.101562 -30.953125 11.5625 -29.921875 C 12.59375 -27.691406 13.175781 -25.207031 13.3125 -22.46875 C 13.457031 -19.726562 13.34375 -16.976562 12.96875 -14.21875 C 12.601562 -11.457031 12.195312 -8.921875 11.75 -6.609375 C 11.539062 -5.578125 11.300781 -4.535156 11.03125 -3.484375 C 10.757812 -2.441406 10.148438 -1.566406 9.203125 -0.859375 Z M 9.203125 -0.859375 "/></g></g></g><g fill="#ffffff" fill-opacity="1"><g transform="translate(236.292164, 203.624987)"><g><path d="M 2.84375 -2.21875 C 1.9375 -3.082031 1.367188 -4.113281 1.140625 -5.3125 C 0.910156 -6.507812 0.847656 -7.742188 0.953125 -9.015625 C 1.054688 -10.296875 1.128906 -11.492188 1.171875 -12.609375 L 1.546875 -25.84375 C 1.585938 -27.28125 1.609375 -28.738281 1.609375 -30.21875 C 1.609375 -31.707031 1.691406 -33.140625 1.859375 -34.515625 C 2.023438 -35.898438 2.375 -37.128906 2.90625 -38.203125 C 3.4375 -39.273438 4.257812 -40.097656 5.375 -40.671875 C 6.488281 -41.242188 7.992188 -41.492188 9.890625 -41.421875 C 10.878906 -41.378906 12.082031 -41.347656 13.5 -41.328125 C 14.925781 -41.304688 16.410156 -41.242188 17.953125 -41.140625 C 19.503906 -41.035156 21 -40.816406 22.4375 -40.484375 C 23.875 -40.160156 25.128906 -39.632812 26.203125 -38.90625 C 27.273438 -38.1875 28.019531 -37.207031 28.4375 -35.96875 C 29.007812 -34.320312 28.976562 -33.035156 28.34375 -32.109375 C 27.707031 -31.179688 26.769531 -30.519531 25.53125 -30.125 C 24.289062 -29.738281 22.976562 -29.515625 21.59375 -29.453125 C 20.21875 -29.390625 19.035156 -29.398438 18.046875 -29.484375 C 17.390625 -29.523438 16.628906 -29.585938 15.765625 -29.671875 C 14.898438 -29.753906 14.09375 -29.734375 13.34375 -29.609375 C 12.601562 -29.484375 12.050781 -29.15625 11.6875 -28.625 C 11.101562 -27.800781 10.894531 -27.117188 11.0625 -26.578125 C 11.226562 -26.046875 11.617188 -25.632812 12.234375 -25.34375 C 12.859375 -25.050781 13.519531 -24.882812 14.21875 -24.84375 C 15.695312 -24.71875 17.015625 -24.5 18.171875 -24.1875 C 19.328125 -23.882812 20.179688 -23.300781 20.734375 -22.4375 C 21.296875 -21.570312 21.429688 -20.253906 21.140625 -18.484375 C 20.722656 -15.972656 19.722656 -14.203125 18.140625 -13.171875 C 16.554688 -12.140625 14.523438 -12.015625 12.046875 -12.796875 C 12.046875 -11.890625 11.984375 -10.710938 11.859375 -9.265625 C 11.742188 -7.828125 11.5 -6.382812 11.125 -4.9375 C 10.75 -3.5 10.210938 -2.304688 9.515625 -1.359375 C 8.816406 -0.410156 7.921875 0.0507812 6.828125 0.03125 C 5.734375 0.0078125 4.40625 -0.738281 2.84375 -2.21875 Z M 2.84375 -2.21875 "/></g></g></g><g fill="#ffffff" fill-opacity="1"><g transform="translate(270.594293, 203.624987)"><g><path d="M 17.5625 -1.734375 C 17.0625 -0.785156 16.253906 -0.1875 15.140625 0.0625 C 14.023438 0.3125 12.867188 0.203125 11.671875 -0.265625 C 10.484375 -0.742188 9.5 -1.5625 8.71875 -2.71875 C 7.976562 -3.832031 7.523438 -5.179688 7.359375 -6.765625 C 7.191406 -8.347656 7.160156 -10.015625 7.265625 -11.765625 C 7.367188 -13.523438 7.476562 -15.226562 7.59375 -16.875 C 7.71875 -18.519531 7.722656 -19.960938 7.609375 -21.203125 C 7.398438 -22.847656 6.851562 -24.421875 5.96875 -25.921875 C 5.082031 -27.429688 4.164062 -28.9375 3.21875 -30.4375 C 2.269531 -31.945312 1.585938 -33.546875 1.171875 -35.234375 C 0.804688 -36.753906 0.859375 -38.15625 1.328125 -39.4375 C 1.804688 -40.71875 2.628906 -41.601562 3.796875 -42.09375 C 4.972656 -42.59375 6.382812 -42.425781 8.03125 -41.59375 C 9.476562 -40.894531 10.570312 -39.863281 11.3125 -38.5 C 12.050781 -37.144531 12.65625 -35.691406 13.125 -34.140625 C 13.601562 -32.597656 14.132812 -31.171875 14.71875 -29.859375 C 15.125 -30.554688 15.59375 -31.441406 16.125 -32.515625 C 16.664062 -33.585938 17.253906 -34.695312 17.890625 -35.84375 C 18.535156 -37 19.25 -38.019531 20.03125 -38.90625 C 20.8125 -39.789062 21.664062 -40.410156 22.59375 -40.765625 C 23.519531 -41.117188 24.539062 -41.023438 25.65625 -40.484375 C 26.5625 -40.078125 27.132812 -39.476562 27.375 -38.6875 C 27.625 -37.90625 27.675781 -37.039062 27.53125 -36.09375 C 27.394531 -35.144531 27.148438 -34.21875 26.796875 -33.3125 C 26.441406 -32.40625 26.125 -31.644531 25.84375 -31.03125 C 25.300781 -29.875 24.679688 -28.75 23.984375 -27.65625 C 23.285156 -26.5625 22.582031 -25.484375 21.875 -24.421875 C 21.132812 -23.347656 20.609375 -22.445312 20.296875 -21.71875 C 19.992188 -21 19.832031 -20.238281 19.8125 -19.4375 C 19.789062 -18.632812 19.863281 -17.570312 20.03125 -16.25 C 20.195312 -14.15625 20.296875 -12.207031 20.328125 -10.40625 C 20.367188 -8.613281 20.191406 -6.988281 19.796875 -5.53125 C 19.410156 -4.070312 18.664062 -2.804688 17.5625 -1.734375 Z M 17.5625 -1.734375 "/></g></g></g><g fill="#000000" fill-opacity="1"><g transform="translate(310.751934, 151.33964)"><g><path d="M 0.6875 0.0625 C 0.46875 0.0625 0.304688 -0.0078125 0.203125 -0.15625 C 0.0976562 -0.3125 0.0976562 -0.503906 0.203125 -0.734375 L 1.953125 -4.515625 C 2.046875 -4.703125 2.148438 -4.835938 2.265625 -4.921875 C 2.390625 -5.003906 2.535156 -5.046875 2.703125 -5.046875 C 2.859375 -5.046875 3 -5.003906 3.125 -4.921875 C 3.25 -4.835938 3.351562 -4.703125 3.4375 -4.515625 L 5.203125 -0.734375 C 5.304688 -0.492188 5.304688 -0.300781 5.203125 -0.15625 C 5.109375 -0.0078125 4.957031 0.0625 4.75 0.0625 C 4.5625 0.0625 4.414062 0.0195312 4.3125 -0.0625 C 4.207031 -0.144531 4.117188 -0.28125 4.046875 -0.46875 L 3.8125 -1.015625 L 1.578125 -1.015625 L 1.359375 -0.46875 C 1.273438 -0.28125 1.1875 -0.144531 1.09375 -0.0625 C 1.007812 0.0195312 0.875 0.0625 0.6875 0.0625 Z M 2.6875 -3.625 L 2.015625 -2.015625 L 3.390625 -2.015625 L 2.703125 -3.625 Z M 2.6875 -3.625 "/></g></g></g><g fill="#000000" fill-opacity="1"><g transform="translate(316.084128, 151.33964)"><g><path d="M 1.125 0 C 0.675781 0 0.453125 -0.222656 0.453125 -0.671875 L 0.453125 -4.3125 C 0.453125 -4.757812 0.675781 -4.984375 1.125 -4.984375 L 2.515625 -4.984375 C 3.378906 -4.984375 4.050781 -4.765625 4.53125 -4.328125 C 5.007812 -3.898438 5.25 -3.289062 5.25 -2.5 C 5.25 -1.707031 5.007812 -1.09375 4.53125 -0.65625 C 4.050781 -0.21875 3.378906 0 2.515625 0 Z M 1.75 -1.046875 L 2.4375 -1.046875 C 2.925781 -1.046875 3.289062 -1.164062 3.53125 -1.40625 C 3.769531 -1.644531 3.890625 -2.007812 3.890625 -2.5 C 3.890625 -2.988281 3.769531 -3.347656 3.53125 -3.578125 C 3.289062 -3.816406 2.925781 -3.9375 2.4375 -3.9375 L 1.75 -3.9375 Z M 1.75 -1.046875 "/></g></g></g></svg>