<svg id="Layer_1" data-name="Layer 1" xmlns="http://www.w3.org/2000/svg" viewBox="0 0 1080 1080"><defs><style>.cls-1{fill:#fff;}</style></defs><path class="cls-1" d="M207.69,578.47l1.26-45c.85-24.19-4.2-54.68,28.39-53,16.83,1,55.94-2.52,63.09,18.51,7.58,22.29-22.08,23.34-35.33,22.08-6.94-.42-17.87-2.52-21.66,2.94-5.89,8.42,1.26,12.41,8.63,12.83,15.14,1.26,26.49,3.58,23.55,21.66-2.74,17-14.09,24.82-30.92,19.35.22,15.56-4.41,61.41-31.33,36C203.91,605,207.27,590,207.69,578.47Z"/><path class="cls-1" d="M340.43,618.08c-16.76-2.7-28.12-10-29.85-27.74-1.54-16-.77-33.31-.58-49.3,0-13.48-.77-32.93,8.67-44.1,10-11.75,24.26-6.74,28.69,6.93,5.59,16.76,2.7,37.94,2.12,55.08-.19,4.24-1.35,9.25-.77,13.48,1.15,8.09-.19,4.82,6.93,6.17,9.44,1.73,18.3-.2,26.77,5.39,11.75,7.89,11.36,27.35-1.16,34.28C370.47,624.24,352,620,340.43,618.08Z"/><path class="cls-1" d="M402,552.49c-2.08-18.11-7.49-61.82,21.86-61.82,23.1.21,19.57,33.93,19.15,48.92-.21,12.9-2.08,28.52,2.71,40.8,4.58,11.44,14.78,14.57,20.6,2.91,5.21-10.62,5-23.52,5-35,0-11.66-4.37-26.85-1-37.89,3.12-10,13.32-16.65,22.48-8.95,7.29,6.25,7.08,18.32,6.87,27.07.62,22.68,1.87,59.32-13.74,77.64-12.28,14.57-42.46,19.57-59.32,10.82C403.9,605.37,404.73,574.35,402,552.49Z"/><path class="cls-1" d="M558,583.71c-7.24,11.57-19.85,42-38.46,33.7-20.88-9.1,6.82-43.83,13-55.21,2.06-3.93,5.37-8.06,5-12.2-.62-5.37-8.07-13.85-10.75-18.81-4.55-8.07-13-20.68-10.55-30.6,2.28-8.48,11.17-11.79,19-8.89,11,3.72,16.34,18.19,20.89,27.5,6.2-10.34,13.85-25,27.29-26.88,10.75-1.45,18.81,5.17,18.81,16.12,0,11.79-11.37,24-17.36,33.5-1,1.45-2.07,3.1-3.11,4.76-3.92,3.1-3.92,6.4.21,9.71,2.07,7,8.27,14.48,11.37,21.09,5.17,11,23.16,44.25-2.68,43.84C573.5,621.13,565.44,595.9,558,583.71Z"/><path class="cls-1" d="M639.58,490.73c5.23-1.52,20.08,1.68,17.38,10.12,5.4,17-25.65,37.63-32.57,14.35C621.52,505.24,629.79,493.43,639.58,490.73ZM627.77,612.91c-6.59-14.18-2.87-39.66-1.69-54.68.67-6.92.67-19.07,5.9-24.64,7.26-7.59,17-1.86,20.93,6.41,8.44,18.23,4.22,44.72.51,63.62-1.18,5.74-1.86,12-6.92,15.7C639.07,624.55,631.31,620.33,627.77,612.91Z"/><path class="cls-1" d="M683.19,578.39l1.26-45.09c.85-24.23-4.21-54.78,28.45-53.09,16.85,1.05,56-2.53,63.2,18.54,7.59,22.33-22.12,23.39-35.39,22.12-7-.42-17.91-2.53-21.7,3-5.9,8.43,1.26,12.43,8.63,12.85,15.17,1.27,26.55,3.59,23.6,21.71-2.74,17.06-14.11,24.86-31,19.38.21,15.59-4.42,61.52-31.39,36C679.4,604.94,682.77,590,683.19,578.39Z"/><path class="cls-1" d="M812.77,612.41c-8.93-13.68-1.71-41.42-3.42-56.81-1.9-15.2-16-27.55-19.76-43.13-3.61-14.06,5.7-27.17,21.09-19.57,13.11,6.46,15,24.13,20.52,36.1,6.45-10.64,16.52-40.85,33.62-32.68,11,5.13,4.18,21.28.57,29.07a155.4,155.4,0,0,1-12.16,20.33c-6.84,9.88-7.22,12.92-5.7,25.08,1.52,19.38,2.66,34.77-7.6,44.65C835.18,624.18,820,623.24,812.77,612.41Z"/></svg>